HIERARCHY
ROOT Hips
{
	OFFSET 0.000000 88.474243 0.000000
	CHANNELS 6 Xposition Yposition Zposition Zrotation Yrotation Xrotation 
	JOINT Hips_Spine
	{
		OFFSET 0.000000 0.000000 0.000000
		CHANNELS 3 Zrotation Yrotation Xrotation
		JOINT Spine
		{
			OFFSET 0.005100 8.711998 -0.691000
			CHANNELS 3 Zrotation Yrotation Xrotation
			JOINT Spine1
			{
				OFFSET -0.009200 8.660301 -1.275000
				CHANNELS 3 Zrotation Yrotation Xrotation
				JOINT Spine2
				{
					OFFSET 0.006300 9.852501 -1.857000
					CHANNELS 3 Zrotation Yrotation Xrotation
					JOINT Spine2_Neck
					{
						OFFSET 0.000000 0.000000 0.000000
						CHANNELS 3 Zrotation Yrotation Xrotation
						JOINT Neck
						{
							OFFSET 0.016300 11.420799 -0.263300
							CHANNELS 3 Zrotation Yrotation Xrotation
							End Site #name: Head
							{
								OFFSET -0.019200 9.262405 2.362500
							}
						}
					}
					JOINT Spine2_LeftShoulder
					{
						OFFSET 0.000000 0.000000 0.000000
						CHANNELS 3 Zrotation Yrotation Xrotation
						JOINT LeftShoulder
						{
							OFFSET 5.616900 6.732201 -0.345700
							CHANNELS 3 Zrotation Yrotation Xrotation
							JOINT LeftArm
							{
								OFFSET 10.664888 -0.183372 -2.440700
								CHANNELS 3 Zrotation Yrotation Xrotation
								JOINT LeftForeArm
								{
									OFFSET 27.459126 0.000000 0.000000
									CHANNELS 3 Zrotation Yrotation Xrotation
									End Site #name: LeftHand
									{
										OFFSET 21.306858 0.000000 0.000000
									}
								}
							}
						}
					}
					JOINT Spine2_RightShoulder
					{
						OFFSET 0.000000 0.000000 0.000000
						CHANNELS 3 Zrotation Yrotation Xrotation
						JOINT RightShoulder
						{
							OFFSET -5.580300 6.737503 -0.344400
							CHANNELS 3 Zrotation Yrotation Xrotation
							JOINT RightArm
							{
								OFFSET -10.679335 -0.188484 -2.383900
								CHANNELS 3 Zrotation Yrotation Xrotation
								JOINT RightForeArm
								{
									OFFSET -27.503529 0.000000 0.000000
									CHANNELS 3 Zrotation Yrotation Xrotation
									End Site #name: RightHand
									{
										OFFSET -21.306808 0.000000 0.000000
									}
								}
							}
						}
					}
				}
			}
		}
	}
	JOINT Hips_LeftUpLeg
	{
		OFFSET 0.000000 0.000000 0.000000
		CHANNELS 3 Zrotation Yrotation Xrotation
		JOINT LeftUpLeg
		{
			OFFSET 6.857700 -6.739601 0.312100
			CHANNELS 3 Zrotation Yrotation Xrotation
			JOINT LeftLeg
			{
				OFFSET -0.367590 -34.731552 -4.572400
				CHANNELS 3 Zrotation Yrotation Xrotation
				End Site #name: LeftFoot
				{
					OFFSET 0.367590 -34.656704 -6.067400
				}
			}
		}
	}
	JOINT Hips_RightUpLeg
	{
		OFFSET 0.000000 0.000000 0.000000
		CHANNELS 3 Zrotation Yrotation Xrotation
		JOINT RightUpLeg
		{
			OFFSET -6.876100 -6.733299 0.301000
			CHANNELS 3 Zrotation Yrotation Xrotation
			JOINT RightLeg
			{
				OFFSET 0.347353 -34.795158 -4.515900
				CHANNELS 3 Zrotation Yrotation Xrotation
				End Site #name: RightFoot
				{
					OFFSET -0.347353 -34.589367 -6.070300
				}
			}
		}
	}
}
MOTION
Frames: 9
Frame Time: 0.041667
0.179253 0.045071 -0.024257 1.574874 15.671243 -6.188719 -0.000000 0.000000 0.000000 0.022098 -2.004638 -0.504554 0.444341 -1.579988 -1.895365 0.000000 0.000000 0.000000 0.172813 -0.947795 -2.012187 4.054191 0.781943 -5.100152 0.568592 -1.740048 -2.735666 -15.811320 -5.256683 2.163125 -47.064049 -1.009363 8.199388 -0.551657 -34.245250 6.142519 0.550303 -1.324586 -1.150579 12.703244 10.882242 4.585746 57.470859 -7.795434 -6.414659 -0.821302 54.664650 0.486528 0.000000 0.000000 0.000000 -10.760901 20.487260 -4.876400 -1.696070 -2.747782 23.195302 0.000000 0.000000 0.000000 -5.468929 18.288055 -9.536156 8.335120 3.290525 -1.762129 
0.746087 -0.032543 0.101639 3.640828 15.050708 -6.660948 -0.000000 0.000000 0.000000 -2.020516 -2.312502 -0.924944 0.691966 -1.757305 -2.177644 0.000000 0.000000 0.000000 0.282138 -0.881935 -3.273806 4.584454 -1.237825 -2.947497 -0.002685 -1.714192 -4.103966 -20.823912 -2.720887 1.050264 -45.157455 -0.116422 -4.329606 -0.966634 -28.168839 4.072055 0.188140 -1.686719 -1.296182 12.666518 8.192620 1.832400 60.701891 -2.665107 -8.097759 -1.010423 56.800379 -1.105611 0.000000 0.000000 -0.000000 -14.039183 17.959649 -1.633938 -0.763498 1.027063 20.636791 0.000000 0.000000 0.000000 -9.700407 21.607863 -10.411982 9.032324 3.701521 -0.010155 
1.056614 -0.064369 0.099246 5.234675 12.361070 -6.894091 -0.000000 0.000000 -0.000000 -3.485262 -3.353725 -0.664595 0.647192 -1.616854 -2.372695 0.000000 0.000000 0.000000 0.670868 -1.360038 -3.239049 3.791992 -2.518884 -2.955386 -0.392552 -1.744757 -3.824551 -23.941565 -2.070891 2.687554 -45.827365 5.446843 -8.525328 -1.367488 -28.203653 4.030525 0.218986 -1.731816 -1.309088 11.587670 7.215079 2.016717 59.981780 -0.560972 -6.033328 -0.430978 50.696652 -0.776116 0.000000 0.000000 -0.000000 -15.971146 17.682849 0.630163 -1.090806 1.628765 18.468122 0.000000 0.000000 0.000000 -12.401911 23.307353 -14.263260 8.816865 2.294902 7.272006 
1.316938 -0.084548 0.051913 6.014063 10.348176 -6.956337 -0.000000 0.000000 -0.000000 -5.169797 -3.063742 0.434607 0.580771 -1.570740 -2.393666 0.000000 0.000000 0.000000 0.799382 -1.534432 -3.267647 3.621796 -4.020030 -2.341834 -0.422680 -1.799537 -3.716901 -25.190998 -1.817559 4.175712 -44.721987 7.027257 -8.133878 -0.965207 -26.818141 6.465497 0.279575 -1.790504 -1.311920 10.088816 7.286092 1.875406 59.494629 1.660365 -4.636819 -0.200465 50.672866 -0.639879 0.000000 0.000000 -0.000000 -16.955915 18.158663 1.267254 -1.614593 2.057120 17.686358 0.000000 0.000000 0.000000 -14.400887 22.985249 -18.014871 8.587133 1.871083 15.475843 
1.622496 -0.086860 -0.009040 6.318027 9.780562 -6.739224 -0.000000 0.000000 -0.000000 -6.181198 -2.547231 0.607266 0.443819 -1.532083 -2.439849 0.000000 0.000000 0.000000 0.501151 -1.654676 -3.459213 3.610557 -4.879748 -2.204692 -0.490351 -1.912594 -3.821892 -26.773117 -1.465479 5.286303 -41.986015 7.461191 -8.212641 -0.357170 -23.129588 8.615876 0.215767 -1.840653 -1.390381 8.200096 7.460519 1.697243 60.150896 2.696768 -4.334579 -0.121100 52.435208 -0.751795 0.000000 0.000000 -0.000000 -17.475944 18.641173 1.455029 -1.958544 2.366781 17.280848 0.000000 0.000000 0.000000 -15.809080 22.030689 -20.308813 8.329727 1.834994 21.180026 
1.959648 -0.076835 -0.074266 6.364092 9.540708 -6.596616 -0.000000 0.000000 -0.000000 -6.389050 -2.068981 0.030248 0.213259 -1.512916 -2.575461 0.000000 0.000000 0.000000 0.095544 -1.724286 -3.719522 3.416159 -5.231786 -2.171937 -0.712312 -1.998228 -4.045764 -28.651884 -0.880703 5.912616 -39.837601 7.535626 -7.770879 0.110112 -18.852445 9.998551 0.039423 -1.895994 -1.560936 6.438624 7.555258 1.521860 61.691763 2.424922 -5.201177 0.044095 52.709017 -0.761873 0.000000 0.000000 -0.000000 -17.815741 18.983783 1.347603 -1.876154 2.682606 17.034808 0.000000 0.000000 0.000000 -16.663057 20.897247 -21.179618 8.046966 2.060171 24.396404 
2.309789 -0.057661 -0.138131 6.219816 9.781937 -6.505584 -0.000000 0.000000 -0.000000 -6.126322 -1.675177 -0.722790 -0.061383 -1.437327 -2.788335 0.000000 0.000000 0.000000 -0.257308 -1.728486 -3.903959 3.160072 -5.460803 -2.075055 -1.009758 -1.979370 -4.299012 -30.629042 -0.008970 6.120583 -38.106762 7.821869 -7.187130 0.529721 -14.084615 10.624234 -0.282652 -1.877332 -1.742154 5.363457 7.567591 1.414873 63.534093 1.827255 -6.875331 0.265657 51.963862 -0.708722 0.000000 0.000000 -0.000000 -18.036470 19.213231 0.977351 -1.659534 2.921532 17.023937 0.000000 0.000000 0.000000 -17.184404 19.670410 -21.158744 7.598987 2.032512 25.851623 
2.649668 -0.029511 -0.193131 5.946934 10.576260 -6.390421 -0.000000 0.000000 -0.000000 -5.999788 -1.315461 -1.429888 -0.290664 -1.318495 -2.970698 0.000000 0.000000 0.000000 -0.528496 -1.689635 -4.037551 2.931528 -5.473602 -1.908485 -1.279337 -1.916004 -4.504123 -32.098503 0.737836 6.062317 -36.906285 8.111402 -6.957893 0.819893 -10.968833 10.429094 -0.591961 -1.787361 -1.855563 4.753128 7.536618 1.396966 66.038977 1.692690 -7.953176 0.469782 50.619917 -0.681414 0.000000 0.000000 -0.000000 -18.058807 19.295153 0.502027 -1.500907 3.123500 17.063873 0.000000 0.000000 0.000000 -17.348476 18.213113 -20.609398 6.994957 1.878575 26.135657 
2.952934 0.009531 -0.234019 5.558667 11.857036 -6.273641 -0.000000 0.000000 -0.000000 -6.228672 -0.988852 -1.718312 -0.448761 -1.186711 -3.113067 0.000000 0.000000 0.000000 -0.707720 -1.624016 -4.142266 2.880810 -5.148913 -1.722075 -1.468966 -1.835606 -4.682769 -32.834151 1.202710 5.990239 -36.436570 8.104650 -6.837974 0.855222 -9.812946 10.002008 -0.890085 -1.655110 -1.924163 4.416743 7.401058 1.402711 68.127101 1.281176 -8.267987 0.630383 48.723022 -0.604245 0.000000 0.000000 -0.000000 -17.915062 19.195571 0.032135 -1.281752 3.315317 17.128018 0.000000 0.000000 0.000000 -17.236007 16.541782 -19.783175 6.357096 1.677007 25.711402 
